<svg id="visual" viewBox="0 0 900 100" width="900" height="100" xmlns="http://www.w3.org/2000/svg" xmlns:xlink="http://www.w3.org/1999/xlink" version="1.1"><path d="M0 20L37.5 25.5C75 31 150 42 225 47.7C300 53.3 375 53.7 450 56.2C525 58.7 600 63.3 675 60.7C750 58 825 48 862.5 43L900 38L900 101L862.5 101C825 101 750 101 675 101C600 101 525 101 450 101C375 101 300 101 225 101C150 101 75 101 37.5 101L0 101Z" fill="#c1c1c1"></path><path d="M0 78L37.5 77.5C75 77 150 76 225 70.2C300 64.3 375 53.7 450 52C525 50.3 600 57.7 675 57.5C750 57.3 825 49.7 862.5 45.8L900 42L900 101L862.5 101C825 101 750 101 675 101C600 101 525 101 450 101C375 101 300 101 225 101C150 101 75 101 37.5 101L0 101Z" fill="#a3a5a8"></path><path d="M0 74L37.5 70.7C75 67.3 150 60.7 225 61.3C300 62 375 70 450 67.8C525 65.7 600 53.3 675 49C750 44.7 825 48.3 862.5 50.2L900 52L900 101L862.5 101C825 101 750 101 675 101C600 101 525 101 450 101C375 101 300 101 225 101C150 101 75 101 37.5 101L0 101Z" fill="#878a90"></path><path d="M0 72L37.5 74.3C75 76.7 150 81.3 225 79.2C300 77 375 68 450 66.7C525 65.3 600 71.7 675 70.2C750 68.7 825 59.3 862.5 54.7L900 50L900 101L862.5 101C825 101 750 101 675 101C600 101 525 101 450 101C375 101 300 101 225 101C150 101 75 101 37.5 101L0 101Z" fill="#6b7078"></path><path d="M0 85L37.5 83.7C75 82.3 150 79.7 225 79.8C300 80 375 83 450 82C525 81 600 76 675 74.3C750 72.7 825 74.3 862.5 75.2L900 76L900 101L862.5 101C825 101 750 101 675 101C600 101 525 101 450 101C375 101 300 101 225 101C150 101 75 101 37.5 101L0 101Z" fill="#515761"></path><path d="M0 77L37.5 77.3C75 77.7 150 78.3 225 78.8C300 79.3 375 79.7 450 81.3C525 83 600 86 675 84.5C750 83 825 77 862.5 74L900 71L900 101L862.5 101C825 101 750 101 675 101C600 101 525 101 450 101C375 101 300 101 225 101C150 101 75 101 37.5 101L0 101Z" fill="#373f4c"></path><path d="M0 83L37.5 83.2C75 83.3 150 83.7 225 85.5C300 87.3 375 90.7 450 91.8C525 93 600 92 675 91.7C750 91.3 825 91.7 862.5 91.8L900 92L900 101L862.5 101C825 101 750 101 675 101C600 101 525 101 450 101C375 101 300 101 225 101C150 101 75 101 37.5 101L0 101Z" fill="#1f2937"></path></svg>